<svg width="1000" height="115" viewBox="0 0 1000 115" fill="none" xmlns="http://www.w3.org/2000/svg">
<rect width="1000" height="115" fill="#485255"/>
<path d="M79.0259 27.6994H83.495C84.5088 27.6994 85.3649 27.8539 86.0634 28.163C86.768 28.472 87.3027 28.9295 87.6674 29.5352C88.0383 30.1348 88.2237 30.8735 88.2237 31.7512C88.2237 32.3693 88.097 32.9349 87.8436 33.448C87.5963 33.9549 87.2378 34.3875 86.768 34.7461C86.3044 35.0984 85.7481 35.3611 85.0991 35.5342L84.5984 35.7289H80.3982L80.3797 34.2732H83.5507C84.1935 34.2732 84.7282 34.1619 85.1547 33.9394C85.5812 33.7107 85.9026 33.4047 86.119 33.0215C86.3353 32.6382 86.4435 32.2148 86.4435 31.7512C86.4435 31.232 86.3415 30.7777 86.1375 30.3882C85.9336 29.9988 85.6121 29.699 85.1733 29.4889C84.7406 29.2725 84.1812 29.1643 83.495 29.1643H80.8154V41.1993H79.0259V27.6994ZM86.9164 41.1993L83.6341 35.0798L85.4978 35.0706L88.8264 41.0881V41.1993H86.9164ZM90.0132 36.2945V36.0812C90.0132 35.358 90.1183 34.6873 90.3285 34.0692C90.5386 33.4449 90.8415 32.904 91.2371 32.4466C91.6327 31.983 92.1118 31.6245 92.6743 31.3711C93.2368 31.1115 93.8673 30.9816 94.5657 30.9816C95.2704 30.9816 95.904 31.1115 96.4665 31.3711C97.0352 31.6245 97.5173 31.983 97.9129 32.4466C98.3147 32.904 98.6207 33.4449 98.8308 34.0692C99.041 34.6873 99.1461 35.358 99.1461 36.0812V36.2945C99.1461 37.0177 99.041 37.6884 98.8308 38.3065C98.6207 38.9246 98.3147 39.4655 97.9129 39.9291C97.5173 40.3865 97.0383 40.745 96.4758 41.0046C95.9195 41.2581 95.289 41.3848 94.5843 41.3848C93.8796 41.3848 93.246 41.2581 92.6835 41.0046C92.121 40.745 91.6389 40.3865 91.2371 39.9291C90.8415 39.4655 90.5386 38.9246 90.3285 38.3065C90.1183 37.6884 90.0132 37.0177 90.0132 36.2945ZM91.7285 36.0812V36.2945C91.7285 36.7952 91.7872 37.268 91.9047 37.7131C92.0221 38.152 92.1983 38.5414 92.4332 38.8814C92.6743 39.2213 92.9741 39.4902 93.3326 39.688C93.6911 39.8796 94.1083 39.9754 94.5843 39.9754C95.0541 39.9754 95.4651 39.8796 95.8175 39.688C96.176 39.4902 96.4727 39.2213 96.7076 38.8814C96.9425 38.5414 97.1186 38.152 97.2361 37.7131C97.3597 37.268 97.4215 36.7952 97.4215 36.2945V36.0812C97.4215 35.5867 97.3597 35.12 97.2361 34.6812C97.1186 34.2361 96.9394 33.8436 96.6983 33.5036C96.4634 33.1575 96.1667 32.8855 95.8082 32.6877C95.4559 32.4899 95.0417 32.391 94.5657 32.391C94.096 32.391 93.6818 32.4899 93.3233 32.6877C92.971 32.8855 92.6743 33.1575 92.4332 33.5036C92.1983 33.8436 92.0221 34.2361 91.9047 34.6812C91.7872 35.12 91.7285 35.5867 91.7285 36.0812ZM105.497 31.1671V32.4837H100.073V31.1671H105.497ZM101.909 28.7286H103.624V38.7145C103.624 39.0544 103.677 39.311 103.782 39.484C103.887 39.6571 104.023 39.7715 104.19 39.8271C104.357 39.8827 104.536 39.9105 104.728 39.9105C104.87 39.9105 105.018 39.8982 105.173 39.8735C105.334 39.8425 105.454 39.8178 105.534 39.7993L105.544 41.1993C105.408 41.2426 105.228 41.2828 105.006 41.3199C104.79 41.3631 104.527 41.3848 104.218 41.3848C103.798 41.3848 103.411 41.3013 103.059 41.1344C102.707 40.9675 102.425 40.6894 102.215 40.3C102.011 39.9044 101.909 39.3728 101.909 38.7052V28.7286ZM113.425 39.484V34.3195C113.425 33.9239 113.345 33.5809 113.184 33.2904C113.029 32.9937 112.794 32.765 112.479 32.6042C112.164 32.4435 111.774 32.3632 111.311 32.3632C110.878 32.3632 110.498 32.4373 110.17 32.5857C109.849 32.734 109.596 32.9288 109.41 33.1698C109.231 33.4109 109.141 33.6705 109.141 33.9487H107.426C107.426 33.5902 107.519 33.2347 107.704 32.8824C107.89 32.5301 108.155 32.2117 108.501 31.9274C108.854 31.6369 109.274 31.4082 109.762 31.2413C110.257 31.0682 110.807 30.9816 111.413 30.9816C112.142 30.9816 112.785 31.1053 113.341 31.3525C113.904 31.5998 114.343 31.9737 114.658 32.4744C114.98 32.9689 115.14 33.5902 115.14 34.3381V39.0112C115.14 39.3449 115.168 39.7004 115.224 40.0774C115.285 40.4545 115.375 40.779 115.493 41.051V41.1993H113.703C113.617 41.0015 113.549 40.7388 113.499 40.4112C113.45 40.0774 113.425 39.7684 113.425 39.484ZM113.722 35.1169L113.74 36.3223H112.006C111.518 36.3223 111.082 36.3625 110.699 36.4428C110.316 36.517 109.994 36.6314 109.735 36.7859C109.475 36.9404 109.277 37.1351 109.141 37.37C109.005 37.5987 108.937 37.8676 108.937 38.1767C108.937 38.4919 109.008 38.7794 109.151 39.039C109.293 39.2986 109.506 39.5057 109.79 39.6602C110.081 39.8085 110.436 39.8827 110.857 39.8827C111.382 39.8827 111.846 39.7715 112.247 39.5489C112.649 39.3264 112.967 39.0544 113.202 38.733C113.443 38.4116 113.573 38.0994 113.592 37.7965L114.324 38.6217C114.281 38.8814 114.164 39.1688 113.972 39.484C113.78 39.7993 113.524 40.1022 113.202 40.3927C112.887 40.677 112.51 40.915 112.071 41.1066C111.639 41.2921 111.15 41.3848 110.606 41.3848C109.926 41.3848 109.33 41.2519 108.817 40.9861C108.31 40.7203 107.914 40.3649 107.63 39.9198C107.352 39.4686 107.213 38.9648 107.213 38.4085C107.213 37.8707 107.318 37.3978 107.528 36.9899C107.738 36.5757 108.041 36.2327 108.437 35.9607C108.832 35.6825 109.308 35.4724 109.864 35.3302C110.421 35.188 111.042 35.1169 111.728 35.1169H113.722ZM122.039 31.1671V32.4837H116.614V31.1671H122.039ZM118.45 28.7286H120.166V38.7145C120.166 39.0544 120.218 39.311 120.323 39.484C120.428 39.6571 120.564 39.7715 120.731 39.8271C120.898 39.8827 121.077 39.9105 121.269 39.9105C121.411 39.9105 121.56 39.8982 121.714 39.8735C121.875 39.8425 121.995 39.8178 122.076 39.7993L122.085 41.1993C121.949 41.2426 121.77 41.2828 121.547 41.3199C121.331 41.3631 121.068 41.3848 120.759 41.3848C120.339 41.3848 119.952 41.3013 119.6 41.1344C119.248 40.9675 118.966 40.6894 118.756 40.3C118.552 39.9044 118.45 39.3728 118.45 38.7052V28.7286ZM128.214 41.3848C127.515 41.3848 126.882 41.2673 126.313 41.0324C125.75 40.7914 125.265 40.4545 124.857 40.0218C124.455 39.5891 124.146 39.0761 123.93 38.4827C123.714 37.8893 123.606 37.2402 123.606 36.5355V36.1461C123.606 35.3302 123.726 34.6039 123.967 33.9672C124.208 33.3244 124.536 32.7804 124.95 32.3353C125.364 31.8903 125.834 31.5534 126.359 31.3247C126.885 31.096 127.429 30.9816 127.991 30.9816C128.708 30.9816 129.326 31.1053 129.846 31.3525C130.371 31.5998 130.801 31.9459 131.134 32.391C131.468 32.8299 131.715 33.3491 131.876 33.9487C132.037 34.5421 132.117 35.1911 132.117 35.8958V36.6654H124.625V35.2653H130.402V35.1355C130.377 34.6904 130.284 34.2577 130.124 33.8374C129.969 33.4171 129.722 33.0709 129.382 32.7989C129.042 32.527 128.578 32.391 127.991 32.391C127.602 32.391 127.243 32.4744 126.916 32.6413C126.588 32.802 126.307 33.0431 126.072 33.3645C125.837 33.686 125.655 34.0785 125.525 34.5421C125.395 35.0057 125.33 35.5404 125.33 36.1461V36.5355C125.33 37.0115 125.395 37.4597 125.525 37.88C125.661 38.2941 125.856 38.6588 126.109 38.9741C126.369 39.2893 126.681 39.5366 127.045 39.7158C127.416 39.8951 127.837 39.9847 128.306 39.9847C128.912 39.9847 129.425 39.8611 129.846 39.6138C130.266 39.3666 130.634 39.0359 130.949 38.6217L131.987 39.4469C131.771 39.7746 131.496 40.0867 131.162 40.3834C130.828 40.6801 130.417 40.9212 129.929 41.1066C129.447 41.2921 128.875 41.3848 128.214 41.3848ZM140.545 32.7433V41.1993H138.83V31.1671H140.499L140.545 32.7433ZM143.679 31.1115L143.67 32.7062C143.528 32.6753 143.392 32.6568 143.262 32.6506C143.138 32.6382 142.996 32.6321 142.836 32.6321C142.44 32.6321 142.091 32.6939 141.788 32.8175C141.485 32.9411 141.228 33.1142 141.018 33.3367C140.808 33.5592 140.641 33.825 140.518 34.1341C140.4 34.437 140.323 34.7708 140.286 35.1355L139.804 35.4136C139.804 34.8079 139.862 34.2392 139.98 33.7076C140.103 33.176 140.292 32.7062 140.545 32.2983C140.799 31.8841 141.12 31.5627 141.51 31.334C141.905 31.0991 142.375 30.9816 142.919 30.9816C143.043 30.9816 143.185 30.9971 143.346 31.028C143.506 31.0527 143.617 31.0805 143.679 31.1115ZM147.128 31.1671V41.1993H145.404V31.1671H147.128ZM145.274 28.506C145.274 28.2279 145.358 27.993 145.524 27.8014C145.697 27.6097 145.951 27.5139 146.285 27.5139C146.612 27.5139 146.863 27.6097 147.036 27.8014C147.215 27.993 147.305 28.2279 147.305 28.506C147.305 28.7718 147.215 29.0005 147.036 29.1922C146.863 29.3776 146.612 29.4703 146.285 29.4703C145.951 29.4703 145.697 29.3776 145.524 29.1922C145.358 29.0005 145.274 28.7718 145.274 28.506ZM156.382 31.1671H157.94V40.9861C157.94 41.87 157.76 42.6241 157.402 43.2484C157.043 43.8728 156.543 44.3456 155.9 44.6671C155.263 44.9947 154.527 45.1585 153.693 45.1585C153.347 45.1585 152.939 45.1028 152.469 44.9916C152.006 44.8865 151.548 44.7041 151.097 44.4445C150.652 44.1911 150.278 43.848 149.975 43.4153L150.874 42.3954C151.295 42.9023 151.734 43.2546 152.191 43.4524C152.655 43.6502 153.112 43.7491 153.563 43.7491C154.107 43.7491 154.577 43.6471 154.973 43.4432C155.368 43.2392 155.674 42.9363 155.89 42.5345C156.113 42.1389 156.224 41.6506 156.224 41.0695V33.3738L156.382 31.1671ZM149.474 36.2945V36.0998C149.474 35.3333 149.564 34.6379 149.743 34.0136C149.929 33.3831 150.191 32.8422 150.531 32.391C150.877 31.9397 151.295 31.5936 151.783 31.3525C152.271 31.1053 152.821 30.9816 153.433 30.9816C154.064 30.9816 154.614 31.0929 155.084 31.3154C155.56 31.5318 155.962 31.8501 156.289 32.2704C156.623 32.6846 156.886 33.1853 157.077 33.7725C157.269 34.3597 157.402 35.0242 157.476 35.766V36.619C157.408 37.3546 157.275 38.016 157.077 38.6032C156.886 39.1904 156.623 39.6911 156.289 40.1052C155.962 40.5194 155.56 40.8377 155.084 41.0603C154.608 41.2766 154.052 41.3848 153.415 41.3848C152.815 41.3848 152.271 41.2581 151.783 41.0046C151.301 40.7512 150.887 40.3958 150.541 39.9384C150.194 39.4809 149.929 38.9432 149.743 38.325C149.564 37.7007 149.474 37.0239 149.474 36.2945ZM151.19 36.0998V36.2945C151.19 36.7952 151.239 37.2649 151.338 37.7038C151.443 38.1427 151.601 38.529 151.811 38.8628C152.027 39.1966 152.302 39.4593 152.636 39.6509C152.97 39.8364 153.368 39.9291 153.832 39.9291C154.401 39.9291 154.871 39.8085 155.241 39.5675C155.612 39.3264 155.906 39.0081 156.122 38.6125C156.345 38.2169 156.518 37.7873 156.642 37.3237V35.0891C156.574 34.7491 156.468 34.4215 156.326 34.1063C156.19 33.7849 156.011 33.5005 155.788 33.2533C155.572 32.9998 155.303 32.7989 154.982 32.6506C154.66 32.5022 154.283 32.4281 153.851 32.4281C153.381 32.4281 152.976 32.527 152.636 32.7248C152.302 32.9164 152.027 33.1822 151.811 33.5222C151.601 33.856 151.443 34.2454 151.338 34.6904C151.239 35.1293 151.19 35.5991 151.19 36.0998ZM162.26 26.9576V41.1993H160.545V26.9576H162.26ZM161.852 35.8031L161.138 35.7752C161.145 35.0891 161.247 34.4555 161.444 33.8745C161.642 33.2873 161.92 32.7773 162.279 32.3446C162.637 31.9119 163.064 31.5781 163.558 31.3433C164.059 31.1022 164.612 30.9816 165.218 30.9816C165.713 30.9816 166.158 31.0496 166.553 31.1856C166.949 31.3154 167.286 31.5256 167.564 31.8161C167.848 32.1066 168.065 32.4837 168.213 32.9473C168.361 33.4047 168.435 33.9641 168.435 34.6255V41.1993H166.711V34.607C166.711 34.0816 166.634 33.6612 166.479 33.346C166.325 33.0246 166.099 32.7928 165.802 32.6506C165.505 32.5022 165.141 32.4281 164.708 32.4281C164.282 32.4281 163.892 32.5177 163.54 32.697C163.194 32.8762 162.894 33.1235 162.64 33.4387C162.393 33.754 162.198 34.1156 162.056 34.5235C161.92 34.9253 161.852 35.3518 161.852 35.8031ZM175.204 31.1671V32.4837H169.78V31.1671H175.204ZM171.616 28.7286H173.331V38.7145C173.331 39.0544 173.384 39.311 173.489 39.484C173.594 39.6571 173.73 39.7715 173.897 39.8271C174.064 39.8827 174.243 39.9105 174.434 39.9105C174.577 39.9105 174.725 39.8982 174.879 39.8735C175.04 39.8425 175.161 39.8178 175.241 39.7993L175.25 41.1993C175.114 41.2426 174.935 41.2828 174.713 41.3199C174.496 41.3631 174.233 41.3848 173.924 41.3848C173.504 41.3848 173.118 41.3013 172.765 41.1344C172.413 40.9675 172.132 40.6894 171.922 40.3C171.718 39.9044 171.616 39.3728 171.616 38.7052V28.7286Z" fill="white"/>
<rect x="25.8724" y="14.9039" width="40.4284" height="40.4284" rx="1.8989" stroke="#B0E1F1" stroke-width="1.8989"/>
<path d="M41.4822 27.6995H45.9513C46.965 27.6995 47.8211 27.854 48.5196 28.1631C49.2243 28.4722 49.7589 28.9296 50.1236 29.5353C50.4945 30.1349 50.68 30.8736 50.68 31.7513C50.68 32.3695 50.5532 32.9351 50.2998 33.4481C50.0526 33.955 49.694 34.3877 49.2243 34.7462C48.7607 35.0985 48.2044 35.3612 47.5553 35.5343L47.0546 35.729H42.8544L42.8359 34.2733H46.0069C46.6498 34.2733 47.1844 34.162 47.6109 33.9395C48.0375 33.7108 48.3589 33.4048 48.5752 33.0216C48.7916 32.6384 48.8997 32.2149 48.8997 31.7513C48.8997 31.2321 48.7978 30.7778 48.5938 30.3884C48.3898 29.9989 48.0684 29.6991 47.6295 29.489C47.1968 29.2726 46.6374 29.1645 45.9513 29.1645H43.2717V41.1995H41.4822V27.6995ZM49.3726 41.1995L46.0903 35.08L47.954 35.0707L51.2826 41.0882V41.1995H49.3726Z" fill="white"/>
<path d="M282.524 27.6995H286.993C288.007 27.6995 288.863 27.854 289.562 28.1631C290.266 28.4722 290.801 28.9296 291.166 29.5353C291.537 30.1349 291.722 30.8736 291.722 31.7513C291.722 32.3695 291.595 32.9351 291.342 33.4481C291.095 33.955 290.736 34.3877 290.266 34.7462C289.803 35.0985 289.246 35.3612 288.597 35.5343L288.097 35.729H283.897L283.878 34.2733H287.049C287.692 34.2733 288.227 34.162 288.653 33.9395C289.08 33.7108 289.401 33.4048 289.617 33.0216C289.834 32.6384 289.942 32.2149 289.942 31.7513C289.942 31.2321 289.84 30.7778 289.636 30.3884C289.432 29.9989 289.11 29.6991 288.672 29.489C288.239 29.2726 287.679 29.1645 286.993 29.1645H284.314V41.1995H282.524V27.6995ZM290.415 41.1995L287.132 35.08L288.996 35.0707L292.325 41.0882V41.1995H290.415ZM293.512 36.2946V36.0813C293.512 35.3581 293.617 34.6875 293.827 34.0693C294.037 33.445 294.34 32.9042 294.735 32.4467C295.131 31.9831 295.61 31.6246 296.173 31.3712C296.735 31.1116 297.366 30.9818 298.064 30.9818C298.769 30.9818 299.402 31.1116 299.965 31.3712C300.533 31.6246 301.016 31.9831 301.411 32.4467C301.813 32.9042 302.119 33.445 302.329 34.0693C302.539 34.6875 302.644 35.3581 302.644 36.0813V36.2946C302.644 37.0178 302.539 37.6885 302.329 38.3066C302.119 38.9247 301.813 39.4656 301.411 39.9292C301.016 40.3866 300.537 40.7451 299.974 41.0048C299.418 41.2582 298.787 41.3849 298.083 41.3849C297.378 41.3849 296.744 41.2582 296.182 41.0048C295.619 40.7451 295.137 40.3866 294.735 39.9292C294.34 39.4656 294.037 38.9247 293.827 38.3066C293.617 37.6885 293.512 37.0178 293.512 36.2946ZM295.227 36.0813V36.2946C295.227 36.7953 295.286 37.2682 295.403 37.7132C295.52 38.1521 295.697 38.5415 295.932 38.8815C296.173 39.2214 296.472 39.4903 296.831 39.6881C297.189 39.8798 297.607 39.9756 298.083 39.9756C298.552 39.9756 298.963 39.8798 299.316 39.6881C299.674 39.4903 299.971 39.2214 300.206 38.8815C300.441 38.5415 300.617 38.1521 300.734 37.7132C300.858 37.2682 300.92 36.7953 300.92 36.2946V36.0813C300.92 35.5868 300.858 35.1201 300.734 34.6813C300.617 34.2362 300.438 33.8437 300.197 33.5037C299.962 33.1576 299.665 32.8856 299.306 32.6878C298.954 32.49 298.54 32.3911 298.064 32.3911C297.594 32.3911 297.18 32.49 296.822 32.6878C296.469 32.8856 296.173 33.1576 295.932 33.5037C295.697 33.8437 295.52 34.2362 295.403 34.6813C295.286 35.1201 295.227 35.5868 295.227 36.0813ZM308.996 31.1672V32.4838H303.572V31.1672H308.996ZM305.407 28.7287H307.123V38.7146C307.123 39.0546 307.175 39.3111 307.28 39.4842C307.385 39.6572 307.521 39.7716 307.688 39.8272C307.855 39.8828 308.034 39.9107 308.226 39.9107C308.368 39.9107 308.517 39.8983 308.671 39.8736C308.832 39.8427 308.952 39.8179 309.033 39.7994L309.042 41.1995C308.906 41.2427 308.727 41.2829 308.504 41.32C308.288 41.3633 308.025 41.3849 307.716 41.3849C307.296 41.3849 306.909 41.3015 306.557 41.1346C306.205 40.9677 305.924 40.6895 305.713 40.3001C305.509 39.9045 305.407 39.3729 305.407 38.7053V28.7287ZM316.923 39.4842V34.3197C316.923 33.9241 316.843 33.581 316.682 33.2905C316.528 32.9938 316.293 32.7651 315.977 32.6044C315.662 32.4436 315.273 32.3633 314.809 32.3633C314.377 32.3633 313.996 32.4375 313.669 32.5858C313.347 32.7342 313.094 32.9289 312.908 33.1699C312.729 33.411 312.64 33.6706 312.64 33.9488H310.924C310.924 33.5903 311.017 33.2349 311.202 32.8825C311.388 32.5302 311.654 32.2118 312 31.9275C312.352 31.637 312.772 31.4083 313.261 31.2414C313.755 31.0683 314.305 30.9818 314.911 30.9818C315.641 30.9818 316.283 31.1054 316.84 31.3526C317.402 31.5999 317.841 31.9739 318.156 32.4746C318.478 32.9691 318.639 33.5903 318.639 34.3382V39.0113C318.639 39.3451 318.666 39.7005 318.722 40.0776C318.784 40.4546 318.873 40.7791 318.991 41.0511V41.1995H317.201C317.115 41.0017 317.047 40.739 316.997 40.4113C316.948 40.0776 316.923 39.7685 316.923 39.4842ZM317.22 35.1171L317.238 36.3224H315.505C315.016 36.3224 314.58 36.3626 314.197 36.4429C313.814 36.5171 313.493 36.6315 313.233 36.786C312.973 36.9405 312.776 37.1353 312.64 37.3701C312.504 37.5989 312.436 37.8677 312.436 38.1768C312.436 38.4921 312.507 38.7795 312.649 39.0391C312.791 39.2987 313.004 39.5058 313.289 39.6603C313.579 39.8087 313.935 39.8828 314.355 39.8828C314.88 39.8828 315.344 39.7716 315.746 39.5491C316.147 39.3265 316.466 39.0546 316.701 38.7331C316.942 38.4117 317.072 38.0995 317.09 37.7967L317.823 38.6219C317.779 38.8815 317.662 39.1689 317.47 39.4842C317.279 39.7994 317.022 40.1023 316.701 40.3928C316.385 40.6771 316.008 40.9151 315.57 41.1067C315.137 41.2922 314.648 41.3849 314.105 41.3849C313.425 41.3849 312.828 41.252 312.315 40.9862C311.808 40.7204 311.413 40.365 311.128 39.9199C310.85 39.4687 310.711 38.9649 310.711 38.4086C310.711 37.8708 310.816 37.398 311.026 36.99C311.236 36.5758 311.539 36.2328 311.935 35.9608C312.331 35.6826 312.806 35.4725 313.363 35.3303C313.919 35.1881 314.54 35.1171 315.226 35.1171H317.22ZM325.537 31.1672V32.4838H320.113V31.1672H325.537ZM321.949 28.7287H323.664V38.7146C323.664 39.0546 323.716 39.3111 323.822 39.4842C323.927 39.6572 324.063 39.7716 324.23 39.8272C324.396 39.8828 324.576 39.9107 324.767 39.9107C324.909 39.9107 325.058 39.8983 325.212 39.8736C325.373 39.8427 325.494 39.8179 325.574 39.7994L325.583 41.1995C325.447 41.2427 325.268 41.2829 325.045 41.32C324.829 41.3633 324.566 41.3849 324.257 41.3849C323.837 41.3849 323.451 41.3015 323.098 41.1346C322.746 40.9677 322.465 40.6895 322.255 40.3001C322.051 39.9045 321.949 39.3729 321.949 38.7053V28.7287ZM331.712 41.3849C331.013 41.3849 330.38 41.2675 329.811 41.0326C329.249 40.7915 328.764 40.4546 328.356 40.0219C327.954 39.5892 327.645 39.0762 327.428 38.4828C327.212 37.8894 327.104 37.2403 327.104 36.5357V36.1462C327.104 35.3303 327.224 34.604 327.465 33.9673C327.707 33.3245 328.034 32.7805 328.448 32.3355C328.862 31.8904 329.332 31.5535 329.858 31.3248C330.383 31.0961 330.927 30.9818 331.489 30.9818C332.206 30.9818 332.825 31.1054 333.344 31.3526C333.869 31.5999 334.299 31.946 334.633 32.3911C334.966 32.83 335.214 33.3492 335.374 33.9488C335.535 34.5422 335.615 35.1912 335.615 35.8959V36.6655H328.124V35.2654H333.9V35.1356C333.875 34.6905 333.783 34.2579 333.622 33.8375C333.467 33.4172 333.22 33.071 332.88 32.7991C332.54 32.5271 332.077 32.3911 331.489 32.3911C331.1 32.3911 330.742 32.4746 330.414 32.6414C330.086 32.8022 329.805 33.0432 329.57 33.3647C329.335 33.6861 329.153 34.0786 329.023 34.5422C328.893 35.0058 328.828 35.5405 328.828 36.1462V36.5357C328.828 37.0116 328.893 37.4598 329.023 37.8801C329.159 38.2942 329.354 38.6589 329.607 38.9742C329.867 39.2894 330.179 39.5367 330.544 39.7159C330.915 39.8952 331.335 39.9848 331.805 39.9848C332.41 39.9848 332.924 39.8612 333.344 39.614C333.764 39.3667 334.132 39.036 334.447 38.6219L335.486 39.4471C335.269 39.7747 334.994 40.0868 334.66 40.3835C334.327 40.6802 333.916 40.9213 333.427 41.1067C332.945 41.2922 332.373 41.3849 331.712 41.3849ZM344.192 26.9577V41.1995H342.467V26.9577H344.192ZM351.109 41.3849C350.41 41.3849 349.777 41.2675 349.208 41.0326C348.646 40.7915 348.16 40.4546 347.752 40.0219C347.351 39.5892 347.042 39.0762 346.825 38.4828C346.609 37.8894 346.501 37.2403 346.501 36.5357V36.1462C346.501 35.3303 346.621 34.604 346.862 33.9673C347.103 33.3245 347.431 32.7805 347.845 32.3355C348.259 31.8904 348.729 31.5535 349.255 31.3248C349.78 31.0961 350.324 30.9818 350.886 30.9818C351.603 30.9818 352.222 31.1054 352.741 31.3526C353.266 31.5999 353.696 31.946 354.03 32.3911C354.363 32.83 354.611 33.3492 354.771 33.9488C354.932 34.5422 355.012 35.1912 355.012 35.8959V36.6655H347.521V35.2654H353.297V35.1356C353.272 34.6905 353.18 34.2579 353.019 33.8375C352.864 33.4172 352.617 33.071 352.277 32.7991C351.937 32.5271 351.474 32.3911 350.886 32.3911C350.497 32.3911 350.138 32.4746 349.811 32.6414C349.483 32.8022 349.202 33.0432 348.967 33.3647C348.732 33.6861 348.55 34.0786 348.42 34.5422C348.29 35.0058 348.225 35.5405 348.225 36.1462V36.5357C348.225 37.0116 348.29 37.4598 348.42 37.8801C348.556 38.2942 348.751 38.6589 349.004 38.9742C349.264 39.2894 349.576 39.5367 349.941 39.7159C350.312 39.8952 350.732 39.9848 351.202 39.9848C351.807 39.9848 352.32 39.8612 352.741 39.614C353.161 39.3667 353.529 39.036 353.844 38.6219L354.883 39.4471C354.666 39.7747 354.391 40.0868 354.057 40.3835C353.724 40.6802 353.313 40.9213 352.824 41.1067C352.342 41.2922 351.77 41.3849 351.109 41.3849ZM359.574 41.1995H357.859V30.1102C357.859 29.387 357.989 28.7781 358.248 28.2836C358.514 27.7829 358.894 27.4059 359.389 27.1524C359.883 26.8928 360.471 26.763 361.15 26.763C361.348 26.763 361.546 26.7754 361.744 26.8001C361.948 26.8248 362.146 26.8619 362.337 26.9114L362.245 28.3114C362.115 28.2805 361.966 28.2589 361.799 28.2465C361.639 28.2342 361.478 28.228 361.317 28.228C360.953 28.228 360.637 28.3022 360.372 28.4505C360.112 28.5927 359.914 28.8029 359.778 29.081C359.642 29.3592 359.574 29.7022 359.574 30.1102V41.1995ZM361.707 31.1672V32.4838H356.273V31.1672H361.707ZM367.817 31.1672V32.4838H362.393V31.1672H367.817ZM364.229 28.7287H365.944V38.7146C365.944 39.0546 365.997 39.3111 366.102 39.4842C366.207 39.6572 366.343 39.7716 366.51 39.8272C366.677 39.8828 366.856 39.9107 367.047 39.9107C367.19 39.9107 367.338 39.8983 367.492 39.8736C367.653 39.8427 367.774 39.8179 367.854 39.7994L367.863 41.1995C367.727 41.2427 367.548 41.2829 367.326 41.32C367.109 41.3633 366.847 41.3849 366.537 41.3849C366.117 41.3849 365.731 41.3015 365.378 41.1346C365.026 40.9677 364.745 40.6895 364.535 40.3001C364.331 39.9045 364.229 39.3729 364.229 38.7053V28.7287Z" fill="white"/>
<rect x="229.371" y="14.904" width="40.4284" height="40.4284" rx="1.8989" stroke="#B0E1F1" stroke-width="1.8989"/>
<path d="M253.168 39.7438V41.1995H246.418V39.7438H253.168ZM246.77 27.6995V41.1995H244.98V27.6995H246.77Z" fill="white"/>
<path d="M476.144 27.6995H477.878L482.301 38.7053L486.714 27.6995H488.457L482.968 41.1995H481.615L476.144 27.6995ZM475.579 27.6995H477.108L477.359 35.933V41.1995H475.579V27.6995ZM487.484 27.6995H489.014V41.1995H487.233V35.933L487.484 27.6995ZM491.443 36.2946V36.0813C491.443 35.3581 491.548 34.6875 491.758 34.0693C491.968 33.445 492.271 32.9042 492.667 32.4467C493.062 31.9831 493.541 31.6246 494.104 31.3712C494.666 31.1116 495.297 30.9818 495.995 30.9818C496.7 30.9818 497.334 31.1116 497.896 31.3712C498.465 31.6246 498.947 31.9831 499.343 32.4467C499.744 32.9042 500.05 33.445 500.261 34.0693C500.471 34.6875 500.576 35.3581 500.576 36.0813V36.2946C500.576 37.0178 500.471 37.6885 500.261 38.3066C500.05 38.9247 499.744 39.4656 499.343 39.9292C498.947 40.3866 498.468 40.7451 497.905 41.0048C497.349 41.2582 496.719 41.3849 496.014 41.3849C495.309 41.3849 494.676 41.2582 494.113 41.0048C493.551 40.7451 493.069 40.3866 492.667 39.9292C492.271 39.4656 491.968 38.9247 491.758 38.3066C491.548 37.6885 491.443 37.0178 491.443 36.2946ZM493.158 36.0813V36.2946C493.158 36.7953 493.217 37.2682 493.334 37.7132C493.452 38.1521 493.628 38.5415 493.863 38.8815C494.104 39.2214 494.404 39.4903 494.762 39.6881C495.121 39.8798 495.538 39.9756 496.014 39.9756C496.484 39.9756 496.895 39.8798 497.247 39.6881C497.606 39.4903 497.902 39.2214 498.137 38.8815C498.372 38.5415 498.548 38.1521 498.666 37.7132C498.789 37.2682 498.851 36.7953 498.851 36.2946V36.0813C498.851 35.5868 498.789 35.1201 498.666 34.6813C498.548 34.2362 498.369 33.8437 498.128 33.5037C497.893 33.1576 497.596 32.8856 497.238 32.6878C496.886 32.49 496.471 32.3911 495.995 32.3911C495.526 32.3911 495.112 32.49 494.753 32.6878C494.401 32.8856 494.104 33.1576 493.863 33.5037C493.628 33.8437 493.452 34.2362 493.334 34.6813C493.217 35.1201 493.158 35.5868 493.158 36.0813ZM505.629 39.651L508.374 31.1672H510.126L506.519 41.1995H505.369L505.629 39.651ZM503.339 31.1672L506.167 39.6974L506.362 41.1995H505.212L501.577 31.1672H503.339ZM515.81 41.3849C515.111 41.3849 514.478 41.2675 513.909 41.0326C513.346 40.7915 512.861 40.4546 512.453 40.0219C512.051 39.5892 511.742 39.0762 511.526 38.4828C511.31 37.8894 511.201 37.2403 511.201 36.5357V36.1462C511.201 35.3303 511.322 34.604 511.563 33.9673C511.804 33.3245 512.132 32.7805 512.546 32.3355C512.96 31.8904 513.43 31.5535 513.955 31.3248C514.481 31.0961 515.025 30.9818 515.587 30.9818C516.304 30.9818 516.922 31.1054 517.442 31.3526C517.967 31.5999 518.397 31.946 518.73 32.3911C519.064 32.83 519.311 33.3492 519.472 33.9488C519.633 34.5422 519.713 35.1912 519.713 35.8959V36.6655H512.221V35.2654H517.998V35.1356C517.973 34.6905 517.88 34.2579 517.72 33.8375C517.565 33.4172 517.318 33.071 516.978 32.7991C516.638 32.5271 516.174 32.3911 515.587 32.3911C515.198 32.3911 514.839 32.4746 514.512 32.6414C514.184 32.8022 513.903 33.0432 513.668 33.3647C513.433 33.6861 513.251 34.0786 513.121 34.5422C512.991 35.0058 512.926 35.5405 512.926 36.1462V36.5357C512.926 37.0116 512.991 37.4598 513.121 37.8801C513.257 38.2942 513.451 38.6589 513.705 38.9742C513.965 39.2894 514.277 39.5367 514.641 39.7159C515.012 39.8952 515.433 39.9848 515.902 39.9848C516.508 39.9848 517.021 39.8612 517.442 39.614C517.862 39.3667 518.23 39.036 518.545 38.6219L519.583 39.4471C519.367 39.7747 519.092 40.0868 518.758 40.3835C518.424 40.6802 518.013 40.9213 517.525 41.1067C517.043 41.2922 516.471 41.3849 515.81 41.3849ZM528.985 41.1995H527.27V30.1102C527.27 29.387 527.4 28.7781 527.659 28.2836C527.925 27.7829 528.305 27.4059 528.8 27.1524C529.294 26.8928 529.881 26.763 530.561 26.763C530.759 26.763 530.957 26.7754 531.155 26.8001C531.359 26.8248 531.557 26.8619 531.748 26.9114L531.655 28.3114C531.526 28.2805 531.377 28.2589 531.21 28.2465C531.05 28.2342 530.889 28.228 530.728 28.228C530.364 28.228 530.048 28.3022 529.782 28.4505C529.523 28.5927 529.325 28.8029 529.189 29.081C529.053 29.3592 528.985 29.7022 528.985 30.1102V41.1995ZM531.118 31.1672V32.4838H525.684V31.1672H531.118ZM532.573 36.2946V36.0813C532.573 35.3581 532.678 34.6875 532.889 34.0693C533.099 33.445 533.402 32.9042 533.797 32.4467C534.193 31.9831 534.672 31.6246 535.234 31.3712C535.797 31.1116 536.427 30.9818 537.126 30.9818C537.831 30.9818 538.464 31.1116 539.027 31.3712C539.595 31.6246 540.077 31.9831 540.473 32.4467C540.875 32.9042 541.181 33.445 541.391 34.0693C541.601 34.6875 541.706 35.3581 541.706 36.0813V36.2946C541.706 37.0178 541.601 37.6885 541.391 38.3066C541.181 38.9247 540.875 39.4656 540.473 39.9292C540.077 40.3866 539.598 40.7451 539.036 41.0048C538.48 41.2582 537.849 41.3849 537.144 41.3849C536.44 41.3849 535.806 41.2582 535.244 41.0048C534.681 40.7451 534.199 40.3866 533.797 39.9292C533.402 39.4656 533.099 38.9247 532.889 38.3066C532.678 37.6885 532.573 37.0178 532.573 36.2946ZM534.289 36.0813V36.2946C534.289 36.7953 534.347 37.2682 534.465 37.7132C534.582 38.1521 534.758 38.5415 534.993 38.8815C535.234 39.2214 535.534 39.4903 535.893 39.6881C536.251 39.8798 536.668 39.9756 537.144 39.9756C537.614 39.9756 538.025 39.8798 538.378 39.6881C538.736 39.4903 539.033 39.2214 539.268 38.8815C539.503 38.5415 539.679 38.1521 539.796 37.7132C539.92 37.2682 539.982 36.7953 539.982 36.2946V36.0813C539.982 35.5868 539.92 35.1201 539.796 34.6813C539.679 34.2362 539.499 33.8437 539.258 33.5037C539.024 33.1576 538.727 32.8856 538.368 32.6878C538.016 32.49 537.602 32.3911 537.126 32.3911C536.656 32.3911 536.242 32.49 535.883 32.6878C535.531 32.8856 535.234 33.1576 534.993 33.5037C534.758 33.8437 534.582 34.2362 534.465 34.6813C534.347 35.1201 534.289 35.5868 534.289 36.0813ZM545.573 32.7434V41.1995H543.857V31.1672H545.526L545.573 32.7434ZM548.707 31.1116L548.697 32.7064C548.555 32.6754 548.419 32.6569 548.289 32.6507C548.166 32.6384 548.024 32.6322 547.863 32.6322C547.467 32.6322 547.118 32.694 546.815 32.8176C546.512 32.9412 546.256 33.1143 546.045 33.3368C545.835 33.5594 545.668 33.8252 545.545 34.1342C545.427 34.4371 545.35 34.7709 545.313 35.1356L544.831 35.4138C544.831 34.808 544.89 34.2393 545.007 33.7077C545.131 33.1761 545.319 32.7064 545.573 32.2984C545.826 31.8842 546.147 31.5628 546.537 31.3341C546.933 31.0992 547.402 30.9818 547.946 30.9818C548.07 30.9818 548.212 30.9972 548.373 31.0281C548.533 31.0529 548.645 31.0807 548.707 31.1116ZM552.999 39.4192L555.577 31.1672H556.708L556.486 32.8083L553.862 41.1995H552.758L552.999 39.4192ZM551.266 31.1672L553.463 39.512L553.621 41.1995H552.462L549.55 31.1672H551.266ZM559.175 39.4471L561.27 31.1672H562.976L560.065 41.1995H558.915L559.175 39.4471ZM556.959 31.1672L559.481 39.2802L559.768 41.1995H558.674L555.976 32.7898L555.753 31.1672H556.959ZM570.653 39.4842V34.3197C570.653 33.9241 570.573 33.581 570.412 33.2905C570.258 32.9938 570.023 32.7651 569.708 32.6044C569.392 32.4436 569.003 32.3633 568.539 32.3633C568.107 32.3633 567.726 32.4375 567.399 32.5858C567.077 32.7342 566.824 32.9289 566.639 33.1699C566.459 33.411 566.37 33.6706 566.37 33.9488H564.654C564.654 33.5903 564.747 33.2349 564.932 32.8825C565.118 32.5302 565.384 32.2118 565.73 31.9275C566.082 31.637 566.503 31.4083 566.991 31.2414C567.485 31.0683 568.035 30.9818 568.641 30.9818C569.371 30.9818 570.014 31.1054 570.57 31.3526C571.132 31.5999 571.571 31.9739 571.886 32.4746C572.208 32.9691 572.369 33.5903 572.369 34.3382V39.0113C572.369 39.3451 572.396 39.7005 572.452 40.0776C572.514 40.4546 572.603 40.7791 572.721 41.0511V41.1995H570.931C570.845 41.0017 570.777 40.739 570.727 40.4113C570.678 40.0776 570.653 39.7685 570.653 39.4842ZM570.95 35.1171L570.969 36.3224H569.235C568.746 36.3224 568.311 36.3626 567.927 36.4429C567.544 36.5171 567.223 36.6315 566.963 36.786C566.703 36.9405 566.506 37.1353 566.37 37.3701C566.234 37.5989 566.166 37.8677 566.166 38.1768C566.166 38.4921 566.237 38.7795 566.379 39.0391C566.521 39.2987 566.734 39.5058 567.019 39.6603C567.309 39.8087 567.665 39.8828 568.085 39.8828C568.61 39.8828 569.074 39.7716 569.476 39.5491C569.878 39.3265 570.196 39.0546 570.431 38.7331C570.672 38.4117 570.802 38.0995 570.82 37.7967L571.553 38.6219C571.509 38.8815 571.392 39.1689 571.2 39.4842C571.009 39.7994 570.752 40.1023 570.431 40.3928C570.115 40.6771 569.738 40.9151 569.3 41.1067C568.867 41.2922 568.379 41.3849 567.835 41.3849C567.155 41.3849 566.558 41.252 566.045 40.9862C565.538 40.7204 565.143 40.365 564.858 39.9199C564.58 39.4687 564.441 38.9649 564.441 38.4086C564.441 37.8708 564.546 37.398 564.756 36.99C564.966 36.5758 565.269 36.2328 565.665 35.9608C566.061 35.6826 566.537 35.4725 567.093 35.3303C567.649 35.1881 568.27 35.1171 568.956 35.1171H570.95ZM576.782 32.7434V41.1995H575.067V31.1672H576.736L576.782 32.7434ZM579.916 31.1116L579.907 32.7064C579.765 32.6754 579.629 32.6569 579.499 32.6507C579.375 32.6384 579.233 32.6322 579.072 32.6322C578.677 32.6322 578.327 32.694 578.024 32.8176C577.722 32.9412 577.465 33.1143 577.255 33.3368C577.045 33.5594 576.878 33.8252 576.754 34.1342C576.637 34.4371 576.559 34.7709 576.522 35.1356L576.04 35.4138C576.04 34.808 576.099 34.2393 576.216 33.7077C576.34 33.1761 576.529 32.7064 576.782 32.2984C577.035 31.8842 577.357 31.5628 577.746 31.3341C578.142 31.0992 578.612 30.9818 579.156 30.9818C579.279 30.9818 579.421 30.9972 579.582 31.0281C579.743 31.0529 579.854 31.0807 579.916 31.1116ZM587.639 39.2524V26.9577H589.364V41.1995H587.788L587.639 39.2524ZM580.89 36.2946V36.0999C580.89 35.3334 580.982 34.638 581.168 34.0137C581.359 33.3832 581.628 32.8423 581.974 32.3911C582.327 31.9399 582.744 31.5937 583.226 31.3526C583.714 31.1054 584.258 30.9818 584.858 30.9818C585.488 30.9818 586.039 31.093 586.508 31.3156C586.984 31.5319 587.386 31.8502 587.714 32.2706C588.047 32.6847 588.31 33.1854 588.502 33.7726C588.693 34.3598 588.826 35.0243 588.9 35.7661V36.6191C588.832 37.3547 588.7 38.0161 588.502 38.6033C588.31 39.1905 588.047 39.6912 587.714 40.1054C587.386 40.5195 586.984 40.8379 586.508 41.0604C586.032 41.2767 585.476 41.3849 584.839 41.3849C584.252 41.3849 583.714 41.2582 583.226 41.0048C582.744 40.7513 582.327 40.3959 581.974 39.9385C581.628 39.4811 581.359 38.9433 581.168 38.3252C580.982 37.7008 580.89 37.024 580.89 36.2946ZM582.614 36.0999V36.2946C582.614 36.7953 582.664 37.2651 582.762 37.7039C582.868 38.1428 583.028 38.5291 583.245 38.8629C583.461 39.1967 583.736 39.4594 584.07 39.651C584.404 39.8365 584.802 39.9292 585.266 39.9292C585.835 39.9292 586.301 39.8087 586.666 39.5676C587.037 39.3265 587.334 39.0082 587.556 38.6126C587.779 38.217 587.952 37.7874 588.075 37.3238V35.0892C588.001 34.7493 587.893 34.4217 587.751 34.1064C587.615 33.785 587.436 33.5006 587.213 33.2534C586.997 33 586.728 32.7991 586.406 32.6507C586.091 32.5024 585.717 32.4282 585.284 32.4282C584.815 32.4282 584.41 32.5271 584.07 32.7249C583.736 32.9165 583.461 33.1823 583.245 33.5223C583.028 33.8561 582.868 34.2455 582.762 34.6905C582.664 35.1294 582.614 35.5992 582.614 36.0999Z" fill="white"/>
<rect x="422.425" y="14.904" width="40.4284" height="40.4284" rx="1.8989" stroke="#B0E1F1" stroke-width="1.8989"/>
<path d="M440.299 27.6995V41.1995H438.51V27.6995H440.299ZM445.955 33.7726V35.2376H439.91V33.7726H445.955ZM446.873 27.6995V29.1645H439.91V27.6995H446.873Z" fill="white"/>
<g opacity="0.5">
<path d="M225.494 97.4716L215.722 87.6998M215.722 87.6998L225.494 77.9279M215.722 87.6998H247.21" stroke="#B0E1F1" stroke-width="2" stroke-linecap="round" stroke-linejoin="round"/>
<path d="M296.919 97.4716L306.691 87.6998M306.691 87.6998L296.919 77.9279M306.691 87.6998H275.204" stroke="#B0E1F1" stroke-width="2" stroke-linecap="round" stroke-linejoin="round"/>
<path d="M352.836 81.7281L343.064 71.9562M343.064 71.9562L333.292 81.7281M343.064 71.9562L343.064 103.443" stroke="#B0E1F1" stroke-width="2" stroke-linecap="round" stroke-linejoin="round"/>
<path d="M25.8214 89.3107V89.0861C25.8214 88.3243 25.9321 87.618 26.1534 86.9669C26.3748 86.3094 26.6938 85.7397 27.1105 85.2579C27.5271 84.7697 28.0317 84.392 28.6241 84.1251C29.2166 83.8517 29.8807 83.715 30.6163 83.715C31.3585 83.715 32.0258 83.8517 32.6183 84.1251C33.2172 84.392 33.7251 84.7697 34.1417 85.2579C34.5649 85.7397 34.8872 86.3094 35.1085 86.9669C35.3299 87.618 35.4406 88.3243 35.4406 89.0861V89.3107C35.4406 90.0724 35.3299 90.7788 35.1085 91.4298C34.8872 92.0809 34.5649 92.6505 34.1417 93.1388C33.7251 93.6206 33.2205 93.9982 32.6281 94.2716C32.0421 94.5385 31.3781 94.672 30.6359 94.672C29.8937 94.672 29.2264 94.5385 28.6339 94.2716C28.0415 93.9982 27.5337 93.6206 27.1105 93.1388C26.6938 92.6505 26.3748 92.0809 26.1534 91.4298C25.9321 90.7788 25.8214 90.0724 25.8214 89.3107ZM27.6281 89.0861V89.3107C27.6281 89.838 27.6899 90.3361 27.8136 90.8048C27.9373 91.267 28.1228 91.6772 28.3702 92.0353C28.6241 92.3934 28.9399 92.6766 29.3175 92.8849C29.6951 93.0867 30.1346 93.1876 30.6359 93.1876C31.1307 93.1876 31.5636 93.0867 31.9347 92.8849C32.3123 92.6766 32.6248 92.3934 32.8722 92.0353C33.1196 91.6772 33.3051 91.267 33.4288 90.8048C33.559 90.3361 33.6241 89.838 33.6241 89.3107V89.0861C33.6241 88.5652 33.559 88.0737 33.4288 87.6115C33.3051 87.1427 33.1163 86.7293 32.8624 86.3712C32.615 86.0066 32.3025 85.7202 31.9249 85.5118C31.5538 85.3035 31.1176 85.1993 30.6163 85.1993C30.1215 85.1993 29.6853 85.3035 29.3077 85.5118C28.9366 85.7202 28.6241 86.0066 28.3702 86.3712C28.1228 86.7293 27.9373 87.1427 27.8136 87.6115C27.6899 88.0737 27.6281 88.5652 27.6281 89.0861ZM39.5128 85.5704V94.4767H37.7062V83.9103H39.464L39.5128 85.5704ZM42.8136 83.8517L42.8038 85.5314C42.6541 85.4988 42.5109 85.4793 42.3741 85.4728C42.2439 85.4598 42.0942 85.4532 41.9249 85.4532C41.5083 85.4532 41.1404 85.5184 40.8214 85.6486C40.5024 85.7788 40.2322 85.9611 40.0109 86.1954C39.7895 86.4298 39.6137 86.7098 39.4835 87.0353C39.3598 87.3543 39.2784 87.7059 39.2394 88.09L38.7316 88.3829C38.7316 87.7449 38.7934 87.146 38.9171 86.5861C39.0473 86.0262 39.2459 85.5314 39.5128 85.1017C39.7797 84.6655 40.1183 84.3269 40.5284 84.0861C40.9451 83.8387 41.4399 83.715 42.0128 83.715C42.143 83.715 42.2928 83.7312 42.462 83.7638C42.6313 83.7898 42.7485 83.8191 42.8136 83.8517ZM55.9093 92.0353V83.9103H57.7257V94.4767H55.9972L55.9093 92.0353ZM56.2511 89.8087L57.0031 89.7892C57.0031 90.4923 56.9282 91.1434 56.7784 91.7423C56.6352 92.3348 56.4008 92.8491 56.0753 93.2853C55.7498 93.7215 55.3234 94.0633 54.796 94.3107C54.2687 94.5516 53.6274 94.672 52.8722 94.672C52.3579 94.672 51.8859 94.5971 51.4562 94.4474C51.033 94.2976 50.6684 94.0665 50.3624 93.754C50.0564 93.4415 49.8188 93.0346 49.6495 92.5333C49.4868 92.032 49.4054 91.4298 49.4054 90.7267V83.9103H51.212V90.7462C51.212 91.2215 51.2641 91.6154 51.3683 91.9279C51.479 92.2338 51.6254 92.478 51.8077 92.6603C51.9965 92.8361 52.2049 92.9598 52.4327 93.0314C52.6671 93.103 52.908 93.1388 53.1554 93.1388C53.9236 93.1388 54.5323 92.9923 54.9816 92.6993C55.4308 92.3999 55.7531 91.9995 55.9484 91.4982C56.1502 90.9904 56.2511 90.4272 56.2511 89.8087ZM66.632 91.674C66.632 91.4135 66.5734 91.1726 66.4562 90.9513C66.3455 90.7234 66.1144 90.5184 65.7628 90.3361C65.4178 90.1473 64.8969 89.9845 64.2003 89.8478C63.6144 89.7241 63.0838 89.5776 62.6085 89.4083C62.1398 89.2391 61.7394 89.034 61.4073 88.7931C61.0818 88.5522 60.8312 88.269 60.6554 87.9435C60.4796 87.618 60.3917 87.2371 60.3917 86.8009C60.3917 86.3842 60.4829 85.9904 60.6652 85.6193C60.854 85.2482 61.1176 84.9194 61.4562 84.6329C61.8012 84.3465 62.2146 84.1219 62.6964 83.9591C63.1782 83.7963 63.7153 83.715 64.3077 83.715C65.1541 83.715 65.8767 83.8647 66.4757 84.1642C67.0747 84.4637 67.5337 84.8641 67.8527 85.3654C68.1717 85.8601 68.3312 86.4103 68.3312 87.0157H66.5245C66.5245 86.7228 66.4366 86.4396 66.2609 86.1661C66.0916 85.8862 65.8409 85.6551 65.5089 85.4728C65.1834 85.2905 64.783 85.1993 64.3077 85.1993C63.8064 85.1993 63.3995 85.2775 63.087 85.4337C62.781 85.5835 62.5564 85.7755 62.4132 86.0099C62.2765 86.2443 62.2081 86.4917 62.2081 86.7521C62.2081 86.9474 62.2407 87.1232 62.3058 87.2794C62.3774 87.4292 62.5011 87.5691 62.6769 87.6993C62.8527 87.823 63.1001 87.9402 63.4191 88.0509C63.7381 88.1616 64.145 88.2723 64.6398 88.3829C65.5057 88.5782 66.2185 88.8126 66.7784 89.0861C67.3383 89.3595 67.755 89.6948 68.0284 90.0919C68.3019 90.4891 68.4386 90.9708 68.4386 91.5372C68.4386 91.9995 68.3409 92.4226 68.1456 92.8068C67.9568 93.1909 67.6801 93.5229 67.3156 93.8029C66.9575 94.0763 66.5278 94.2911 66.0265 94.4474C65.5317 94.5971 64.9751 94.672 64.3566 94.672C63.4256 94.672 62.6378 94.506 61.9933 94.174C61.3488 93.8419 60.8605 93.4122 60.5284 92.8849C60.1964 92.3575 60.0304 91.8009 60.0304 91.215H61.8468C61.8728 91.7098 62.0161 92.1036 62.2765 92.3966C62.5369 92.6831 62.8559 92.8881 63.2335 93.0118C63.6111 93.129 63.9855 93.1876 64.3566 93.1876C64.8514 93.1876 65.2648 93.1225 65.5968 92.9923C65.9353 92.8621 66.1925 92.6831 66.3683 92.4552C66.5441 92.2273 66.632 91.9669 66.632 91.674ZM75.1964 94.672C74.4607 94.672 73.7934 94.5483 73.1945 94.3009C72.602 94.047 72.0909 93.6922 71.6613 93.2365C71.2381 92.7807 70.9126 92.2404 70.6847 91.6154C70.4568 90.9904 70.3429 90.3068 70.3429 89.5646V89.1544C70.3429 88.295 70.4698 87.5301 70.7238 86.8595C70.9777 86.1824 71.3227 85.6095 71.7589 85.1407C72.1951 84.672 72.6899 84.3172 73.2433 84.0763C73.7967 83.8354 74.3696 83.715 74.962 83.715C75.7172 83.715 76.3683 83.8452 76.9152 84.1056C77.4685 84.366 77.921 84.7306 78.2726 85.1993C78.6241 85.6616 78.8846 86.2085 79.0538 86.84C79.2231 87.465 79.3077 88.1486 79.3077 88.8907V89.7013H71.4171V88.2267H77.5011V88.09C77.4751 87.6212 77.3774 87.1655 77.2081 86.7228C77.0454 86.2801 76.785 85.9155 76.4269 85.629C76.0688 85.3426 75.5805 85.1993 74.962 85.1993C74.5519 85.1993 74.1743 85.2872 73.8292 85.463C73.4842 85.6323 73.1879 85.8862 72.9406 86.2247C72.6932 86.5633 72.5011 86.9767 72.3644 87.465C72.2277 87.9532 72.1593 88.5164 72.1593 89.1544V89.5646C72.1593 90.0659 72.2277 90.5379 72.3644 90.9806C72.5076 91.4168 72.7127 91.8009 72.9796 92.1329C73.2531 92.465 73.5818 92.7254 73.9659 92.9142C74.3566 93.103 74.7993 93.1974 75.2941 93.1974C75.9321 93.1974 76.4725 93.0672 76.9152 92.8068C77.3579 92.5463 77.7452 92.198 78.0773 91.7618L79.171 92.631C78.9432 92.976 78.6534 93.3048 78.3019 93.6173C77.9503 93.9298 77.5174 94.1837 77.0031 94.379C76.4952 94.5743 75.893 94.672 75.1964 94.672ZM92.6085 92.67V87.2306C92.6085 86.8139 92.5239 86.4526 92.3546 86.1466C92.1919 85.8341 91.9445 85.5932 91.6124 85.424C91.2804 85.2547 90.8702 85.17 90.382 85.17C89.9262 85.17 89.5258 85.2482 89.1808 85.4044C88.8422 85.5607 88.5753 85.7657 88.38 86.0197C88.1912 86.2736 88.0968 86.547 88.0968 86.84H86.2902C86.2902 86.4624 86.3878 86.088 86.5831 85.7169C86.7784 85.3458 87.0584 85.0105 87.423 84.7111C87.7941 84.4051 88.2368 84.1642 88.7511 83.9884C89.2719 83.8061 89.8514 83.715 90.4894 83.715C91.2576 83.715 91.9347 83.8452 92.5206 84.1056C93.1131 84.366 93.5753 84.7599 93.9073 85.2872C94.2459 85.8081 94.4152 86.4624 94.4152 87.2501V92.172C94.4152 92.5236 94.4445 92.8979 94.5031 93.295C94.5682 93.6922 94.6626 94.034 94.7863 94.3204V94.4767H92.9015C92.8103 94.2684 92.7387 93.9917 92.6866 93.6466C92.6346 93.295 92.6085 92.9695 92.6085 92.67ZM92.921 88.0704L92.9406 89.34H91.1144C90.6001 89.34 90.1411 89.3823 89.7374 89.4669C89.3338 89.545 88.9952 89.6655 88.7218 89.8282C88.4484 89.991 88.24 90.1961 88.0968 90.4435C87.9536 90.6844 87.882 90.9676 87.882 91.2931C87.882 91.6251 87.9568 91.9279 88.1066 92.2013C88.2563 92.4747 88.4809 92.6928 88.7804 92.8556C89.0864 93.0118 89.4607 93.09 89.9034 93.09C90.4568 93.09 90.9451 92.9728 91.3683 92.7384C91.7915 92.504 92.1267 92.2176 92.3741 91.879C92.6281 91.5405 92.7648 91.2117 92.7843 90.8927L93.5558 91.7618C93.5102 92.0353 93.3865 92.338 93.1847 92.67C92.9829 93.0021 92.7127 93.3211 92.3741 93.6271C92.0421 93.9266 91.645 94.1772 91.1827 94.379C90.727 94.5743 90.2127 94.672 89.6398 94.672C88.9236 94.672 88.2954 94.532 87.755 94.2521C87.2212 93.9721 86.8045 93.5978 86.505 93.129C86.212 92.6538 86.0656 92.1232 86.0656 91.5372C86.0656 90.9708 86.1762 90.4728 86.3976 90.0431C86.6189 89.6069 86.9379 89.2456 87.3546 88.9591C87.7713 88.6661 88.2726 88.4448 88.8585 88.295C89.4445 88.1453 90.0988 88.0704 90.8214 88.0704H92.921ZM99.0636 85.5704V94.4767H97.257V83.9103H99.0148L99.0636 85.5704ZM102.364 83.8517L102.355 85.5314C102.205 85.4988 102.062 85.4793 101.925 85.4728C101.795 85.4598 101.645 85.4532 101.476 85.4532C101.059 85.4532 100.691 85.5184 100.372 85.6486C100.053 85.7788 99.783 85.9611 99.5616 86.1954C99.3403 86.4298 99.1645 86.7098 99.0343 87.0353C98.9106 87.3543 98.8292 87.7059 98.7902 88.09L98.2823 88.3829C98.2823 87.7449 98.3442 87.146 98.4679 86.5861C98.5981 86.0262 98.7967 85.5314 99.0636 85.1017C99.3305 84.6655 99.6691 84.3269 100.079 84.0861C100.496 83.8387 100.991 83.715 101.564 83.715C101.694 83.715 101.844 83.7312 102.013 83.7638C102.182 83.7898 102.299 83.8191 102.364 83.8517ZM105.841 85.5704V94.4767H104.034V83.9103H105.792L105.841 85.5704ZM109.142 83.8517L109.132 85.5314C108.982 85.4988 108.839 85.4793 108.702 85.4728C108.572 85.4598 108.422 85.4532 108.253 85.4532C107.836 85.4532 107.469 85.5184 107.15 85.6486C106.831 85.7788 106.56 85.9611 106.339 86.1954C106.118 86.4298 105.942 86.7098 105.812 87.0353C105.688 87.3543 105.607 87.7059 105.568 88.09L105.06 88.3829C105.06 87.7449 105.122 87.146 105.245 86.5861C105.375 86.0262 105.574 85.5314 105.841 85.1017C106.108 84.6655 106.446 84.3269 106.857 84.0861C107.273 83.8387 107.768 83.715 108.341 83.715C108.471 83.715 108.621 83.7312 108.79 83.7638C108.959 83.7898 109.077 83.8191 109.142 83.8517ZM110.138 89.3107V89.0861C110.138 88.3243 110.248 87.618 110.47 86.9669C110.691 86.3094 111.01 85.7397 111.427 85.2579C111.844 84.7697 112.348 84.392 112.941 84.1251C113.533 83.8517 114.197 83.715 114.933 83.715C115.675 83.715 116.342 83.8517 116.935 84.1251C117.534 84.392 118.041 84.7697 118.458 85.2579C118.881 85.7397 119.204 86.3094 119.425 86.9669C119.646 87.618 119.757 88.3243 119.757 89.0861V89.3107C119.757 90.0724 119.646 90.7788 119.425 91.4298C119.204 92.0809 118.881 92.6505 118.458 93.1388C118.041 93.6206 117.537 93.9982 116.944 94.2716C116.359 94.5385 115.694 94.672 114.952 94.672C114.21 94.672 113.543 94.5385 112.95 94.2716C112.358 93.9982 111.85 93.6206 111.427 93.1388C111.01 92.6505 110.691 92.0809 110.47 91.4298C110.248 90.7788 110.138 90.0724 110.138 89.3107ZM111.944 89.0861V89.3107C111.944 89.838 112.006 90.3361 112.13 90.8048C112.254 91.267 112.439 91.6772 112.687 92.0353C112.941 92.3934 113.256 92.6766 113.634 92.8849C114.012 93.0867 114.451 93.1876 114.952 93.1876C115.447 93.1876 115.88 93.0867 116.251 92.8849C116.629 92.6766 116.941 92.3934 117.189 92.0353C117.436 91.6772 117.622 91.267 117.745 90.8048C117.875 90.3361 117.941 89.838 117.941 89.3107V89.0861C117.941 88.5652 117.875 88.0737 117.745 87.6115C117.622 87.1427 117.433 86.7293 117.179 86.3712C116.931 86.0066 116.619 85.7202 116.241 85.5118C115.87 85.3035 115.434 85.1993 114.933 85.1993C114.438 85.1993 114.002 85.3035 113.624 85.5118C113.253 85.7202 112.941 86.0066 112.687 86.3712C112.439 86.7293 112.254 87.1427 112.13 87.6115C112.006 88.0737 111.944 88.5652 111.944 89.0861ZM124.698 92.6017L127.413 83.9103H128.605L128.37 85.6388L125.607 94.4767H124.444L124.698 92.6017ZM122.872 83.9103L125.187 92.6993L125.353 94.4767H124.132L121.066 83.9103H122.872ZM131.202 92.631L133.409 83.9103H135.206L132.14 94.4767H130.929L131.202 92.631ZM128.868 83.9103L131.525 92.4552L131.827 94.4767H130.675L127.833 85.6193L127.599 83.9103H128.868ZM143.839 79.4767V94.4767H142.023V79.4767H143.839ZM150.294 83.9103L145.685 88.8419L143.107 91.5177L142.96 89.5939L144.806 87.3868L148.087 83.9103H150.294ZM148.644 94.4767L144.874 89.4376L145.812 87.8263L150.773 94.4767H148.644ZM156.349 94.672C155.613 94.672 154.946 94.5483 154.347 94.3009C153.754 94.047 153.243 93.6922 152.814 93.2365C152.39 92.7807 152.065 92.2404 151.837 91.6154C151.609 90.9904 151.495 90.3068 151.495 89.5646V89.1544C151.495 88.295 151.622 87.5301 151.876 86.8595C152.13 86.1824 152.475 85.6095 152.911 85.1407C153.347 84.672 153.842 84.3172 154.396 84.0763C154.949 83.8354 155.522 83.715 156.114 83.715C156.87 83.715 157.521 83.8452 158.068 84.1056C158.621 84.366 159.073 84.7306 159.425 85.1993C159.776 85.6616 160.037 86.2085 160.206 86.84C160.375 87.465 160.46 88.1486 160.46 88.8907V89.7013H152.569V88.2267H158.653V88.09C158.627 87.6212 158.53 87.1655 158.36 86.7228C158.198 86.2801 157.937 85.9155 157.579 85.629C157.221 85.3426 156.733 85.1993 156.114 85.1993C155.704 85.1993 155.327 85.2872 154.982 85.463C154.637 85.6323 154.34 85.8862 154.093 86.2247C153.845 86.5633 153.653 86.9767 153.517 87.465C153.38 87.9532 153.312 88.5164 153.312 89.1544V89.5646C153.312 90.0659 153.38 90.5379 153.517 90.9806C153.66 91.4168 153.865 91.8009 154.132 92.1329C154.405 92.465 154.734 92.7254 155.118 92.9142C155.509 93.103 155.952 93.1974 156.446 93.1974C157.084 93.1974 157.625 93.0672 158.068 92.8068C158.51 92.5463 158.898 92.198 159.23 91.7618L160.323 92.631C160.095 92.976 159.806 93.3048 159.454 93.6173C159.103 93.9298 158.67 94.1837 158.155 94.379C157.648 94.5743 157.045 94.672 156.349 94.672ZM165.401 93.3829L168.341 83.9103H170.275L166.036 96.1075C165.939 96.368 165.808 96.6479 165.646 96.9474C165.489 97.2534 165.288 97.5431 165.04 97.8165C164.793 98.09 164.493 98.3113 164.142 98.4806C163.797 98.6564 163.383 98.7443 162.901 98.7443C162.758 98.7443 162.576 98.7247 162.355 98.6857C162.133 98.6466 161.977 98.6141 161.886 98.588L161.876 97.1232C161.928 97.1297 162.01 97.1362 162.12 97.1427C162.237 97.1557 162.319 97.1622 162.364 97.1622C162.775 97.1622 163.123 97.1069 163.409 96.9962C163.696 96.892 163.937 96.713 164.132 96.4591C164.334 96.2117 164.506 95.8699 164.65 95.4337L165.401 93.3829ZM163.243 83.9103L165.987 92.1134L166.456 94.0177L165.157 94.6818L161.271 83.9103H163.243ZM178.058 91.674C178.058 91.4135 177.999 91.1726 177.882 90.9513C177.771 90.7234 177.54 90.5184 177.189 90.3361C176.844 90.1473 176.323 89.9845 175.626 89.8478C175.04 89.7241 174.51 89.5776 174.034 89.4083C173.566 89.2391 173.165 89.034 172.833 88.7931C172.508 88.5522 172.257 88.269 172.081 87.9435C171.905 87.618 171.818 87.2371 171.818 86.8009C171.818 86.3842 171.909 85.9904 172.091 85.6193C172.28 85.2482 172.543 84.9194 172.882 84.6329C173.227 84.3465 173.64 84.1219 174.122 83.9591C174.604 83.7963 175.141 83.715 175.734 83.715C176.58 83.715 177.303 83.8647 177.901 84.1642C178.5 84.4637 178.959 84.8641 179.278 85.3654C179.597 85.8601 179.757 86.4103 179.757 87.0157H177.95C177.95 86.7228 177.862 86.4396 177.687 86.1661C177.517 85.8862 177.267 85.6551 176.935 85.4728C176.609 85.2905 176.209 85.1993 175.734 85.1993C175.232 85.1993 174.825 85.2775 174.513 85.4337C174.207 85.5835 173.982 85.7755 173.839 86.0099C173.702 86.2443 173.634 86.4917 173.634 86.7521C173.634 86.9474 173.666 87.1232 173.732 87.2794C173.803 87.4292 173.927 87.5691 174.103 87.6993C174.278 87.823 174.526 87.9402 174.845 88.0509C175.164 88.1616 175.571 88.2723 176.066 88.3829C176.931 88.5782 177.644 88.8126 178.204 89.0861C178.764 89.3595 179.181 89.6948 179.454 90.0919C179.728 90.4891 179.864 90.9708 179.864 91.5372C179.864 91.9995 179.767 92.4226 179.571 92.8068C179.383 93.1909 179.106 93.5229 178.741 93.8029C178.383 94.0763 177.954 94.2911 177.452 94.4474C176.957 94.5971 176.401 94.672 175.782 94.672C174.851 94.672 174.064 94.506 173.419 94.174C172.775 93.8419 172.286 93.4122 171.954 92.8849C171.622 92.3575 171.456 91.8009 171.456 91.215H173.273C173.299 91.7098 173.442 92.1036 173.702 92.3966C173.963 92.6831 174.282 92.8881 174.659 93.0118C175.037 93.129 175.411 93.1876 175.782 93.1876C176.277 93.1876 176.691 93.1225 177.023 92.9923C177.361 92.8621 177.618 92.6831 177.794 92.4552C177.97 92.2273 178.058 91.9669 178.058 91.674ZM182.159 93.5197C182.159 93.2137 182.254 92.9565 182.443 92.7482C182.638 92.5333 182.918 92.4259 183.282 92.4259C183.647 92.4259 183.924 92.5333 184.112 92.7482C184.308 92.9565 184.405 93.2137 184.405 93.5197C184.405 93.8191 184.308 94.073 184.112 94.2814C183.924 94.4897 183.647 94.5939 183.282 94.5939C182.918 94.5939 182.638 94.4897 182.443 94.2814C182.254 94.073 182.159 93.8191 182.159 93.5197ZM182.169 84.8966C182.169 84.5906 182.263 84.3335 182.452 84.1251C182.648 83.9103 182.928 83.8029 183.292 83.8029C183.657 83.8029 183.933 83.9103 184.122 84.1251C184.318 84.3335 184.415 84.5906 184.415 84.8966C184.415 85.1961 184.318 85.45 184.122 85.6583C183.933 85.8667 183.657 85.9708 183.292 85.9708C182.928 85.9708 182.648 85.8667 182.452 85.6583C182.263 85.45 182.169 85.1961 182.169 84.8966Z" fill="white"/>
</g>
</svg>
